<?xml version="1.0" standalone="no"?>
<!DOCTYPE svg PUBLIC "-//W3C//DTD SVG 20010904//EN"
 "http://www.w3.org/TR/2001/REC-SVG-20010904/DTD/svg10.dtd">
<svg version="1.0" xmlns="http://www.w3.org/2000/svg"
 width="196.000000pt" height="196.000000pt" viewBox="0 0 196.000000 196.000000"
 preserveAspectRatio="xMidYMid meet">
<metadata>
Created by potrace 1.11, written by Peter Selinger 2001-2013
</metadata>
<g transform="translate(0.000000,196.000000) scale(0.100000,-0.100000)"
fill="#000000" stroke="none">
<path d="M806 1944 c-307 -58 -565 -253 -704 -531 -30 -60 -72 -179 -79 -223
-2 -14 -7 -36 -10 -50 -12 -54 -10 -258 4 -334 65 -376 347 -675 731 -778 84
-22 301 -30 397 -15 282 45 557 243 695 499 86 162 113 270 114 463 0 126 -3
164 -23 240 -72 279 -261 514 -516 643 -72 36 -207 78 -290 91 -84 13 -237 10
-319 -5z"/>
</g>
</svg>
